<svg width="139" height="113" viewBox="0 0 139 113" fill="none" xmlns="http://www.w3.org/2000/svg">
<path d="M104.175 0C87.7024 26.7669 78.6012 40.115 69.4248 40.115C60.2484 40.115 51.1472 26.7669 34.75 0C51.1472 26.7669 58.9697 40.8919 54.3815 48.3075C49.7933 55.7231 32.8696 56.5 0 56.5C34.0731 56.5 50.9968 57.2769 54.8328 65.4694C58.4432 73.0969 50.6207 87.1513 34.75 113C51.2224 86.2331 60.3236 72.885 69.5 72.885C78.6764 72.885 87.7776 86.2331 104.25 113C86.7998 84.5381 79.1277 70.4131 85.5963 63.3506C91.3128 57.1356 108.161 56.5 139 56.5C104.25 56.5 87.3263 55.6525 83.9416 46.9656C80.8577 39.1969 88.6802 25.2131 104.175 0Z" fill="#ECE6C2"/>
</svg>
